<?xml version="1.0" encoding="utf-8"?>
<!-- Generator: Adobe Illustrator 16.0.0, SVG Export Plug-In . SVG Version: 6.00 Build 0)  -->
<!DOCTYPE svg PUBLIC "-//W3C//DTD SVG 1.1//EN" "http://www.w3.org/Graphics/SVG/1.1/DTD/svg11.dtd">
<svg version="1.1" id="KQ" xmlns="http://www.w3.org/2000/svg" xmlns:xlink="http://www.w3.org/1999/xlink" x="0px" y="0px"
	 viewBox="0 0 400 400" enable-background="new 0 0 400 400" xml:space="preserve">
<path display="none" d="M60,0v40h340V0H60z M390,30H70V10h320V30z"/>
<path display="none" d="M0,360v40h340v-40H0z M330,390H10v-20h320V390z"/>
<polygon points="0,0 40,0 40,60 400,60 400,100 100,100 100,120 400,120 400,200 360,200 360,160 60,160 60,100 0,100 "/>
<rect y="120" width="40" height="80"/>
<polygon points="400,220 0,220 0,340 360,340 360,400 400,400 400,300 40,300 40,260 400,260 "/>
<polygon points="0,360 10,360 10,390 340,390 340,400 0,400 "/>
<polygon points="60,0 60,10 390,10 390,40 400,40 400,0 "/>
</svg>
