<svg xmlns="http://www.w3.org/2000/svg" x="0px" y="0px" viewBox="0 0 100 100">
<path display="none" d="M91.8,90v61.2H612V90H91.8z M596.7,135.9H107.1v-30.6h489.6V135.9z"/>
<path display="none" d="M0,640.8V702h520.2v-61.2H0z M504.9,686.7H15.3V656.1H504.9V686.7z"/>
<polygon points="0,0 10,0 10,15 100,15 100,25 25,25 25,30 100,30 100,50 90,50 90,40 15,40 15,25 0,25 "/>
<rect y="30" width="10" height="20"/>
<polygon points="100,55 0,55 0,85 90,85 90,100 100,100 100,75 10,75 10,65 100,65 "/>
<polygon points="0,90 2.5,90 2.5,97.5 85,97.5 85,100 0,100 "/>
<polygon points="15,0 15,2.5 97.5,2.5 97.5,10 100,10 100,0 "/>
</svg>
